G04*
G04 #@! TF.GenerationSoftware,Altium Limited,Altium Designer,20.1.8 (145)*
G04*
G04 Layer_Color=8388736*
%FSLAX25Y25*%
%MOIN*%
G70*
G04*
G04 #@! TF.SameCoordinates,BFEF3063-9A31-45DD-9A99-A3723DEFFCFF*
G04*
G04*
G04 #@! TF.FilePolarity,Negative*
G04*
G01*
G75*
%ADD17R,0.04540X0.02769*%
G04:AMPARAMS|DCode=18|XSize=27.69mil|YSize=45.4mil|CornerRadius=8.92mil|HoleSize=0mil|Usage=FLASHONLY|Rotation=270.000|XOffset=0mil|YOffset=0mil|HoleType=Round|Shape=RoundedRectangle|*
%AMROUNDEDRECTD18*
21,1,0.02769,0.02756,0,0,270.0*
21,1,0.00984,0.04540,0,0,270.0*
1,1,0.01784,-0.01378,-0.00492*
1,1,0.01784,-0.01378,0.00492*
1,1,0.01784,0.01378,0.00492*
1,1,0.01784,0.01378,-0.00492*
%
%ADD18ROUNDEDRECTD18*%
G04:AMPARAMS|DCode=19|XSize=39.5mil|YSize=39.5mil|CornerRadius=11.87mil|HoleSize=0mil|Usage=FLASHONLY|Rotation=0.000|XOffset=0mil|YOffset=0mil|HoleType=Round|Shape=RoundedRectangle|*
%AMROUNDEDRECTD19*
21,1,0.03950,0.01575,0,0,0.0*
21,1,0.01575,0.03950,0,0,0.0*
1,1,0.02375,0.00787,-0.00787*
1,1,0.02375,-0.00787,-0.00787*
1,1,0.02375,-0.00787,0.00787*
1,1,0.02375,0.00787,0.00787*
%
%ADD19ROUNDEDRECTD19*%
%ADD20R,0.03950X0.03950*%
%ADD21C,0.12611*%
%ADD22C,0.06706*%
%ADD23R,0.06706X0.06706*%
D17*
X54724Y15157D02*
D03*
Y20276D02*
D03*
X35827Y20169D02*
D03*
Y15051D02*
D03*
X45276Y15051D02*
D03*
Y20169D02*
D03*
D18*
X61024Y32694D02*
D03*
Y27576D02*
D03*
D19*
X35433Y42807D02*
D03*
D20*
X41339D02*
D03*
D21*
X59449Y44382D02*
D03*
X14173Y8161D02*
D03*
D22*
X13386Y26772D02*
D03*
Y42520D02*
D03*
Y34646D02*
D03*
X34449Y5602D02*
D03*
X52165D02*
D03*
Y31193D02*
D03*
D23*
X13386Y50394D02*
D03*
X34449Y31193D02*
D03*
M02*
