G04*
G04 #@! TF.GenerationSoftware,Altium Limited,Altium Designer,20.1.8 (145)*
G04*
G04 Layer_Physical_Order=1*
G04 Layer_Color=255*
%FSLAX25Y25*%
%MOIN*%
G70*
G04*
G04 #@! TF.SameCoordinates,BFEF3063-9A31-45DD-9A99-A3723DEFFCFF*
G04*
G04*
G04 #@! TF.FilePolarity,Positive*
G04*
G01*
G75*
%ADD11C,0.01000*%
%ADD13R,0.03740X0.01968*%
G04:AMPARAMS|DCode=14|XSize=19.68mil|YSize=37.4mil|CornerRadius=4.92mil|HoleSize=0mil|Usage=FLASHONLY|Rotation=270.000|XOffset=0mil|YOffset=0mil|HoleType=Round|Shape=RoundedRectangle|*
%AMROUNDEDRECTD14*
21,1,0.01968,0.02756,0,0,270.0*
21,1,0.00984,0.03740,0,0,270.0*
1,1,0.00984,-0.01378,-0.00492*
1,1,0.00984,-0.01378,0.00492*
1,1,0.00984,0.01378,0.00492*
1,1,0.00984,0.01378,-0.00492*
%
%ADD14ROUNDEDRECTD14*%
G04:AMPARAMS|DCode=15|XSize=31.5mil|YSize=31.5mil|CornerRadius=7.87mil|HoleSize=0mil|Usage=FLASHONLY|Rotation=0.000|XOffset=0mil|YOffset=0mil|HoleType=Round|Shape=RoundedRectangle|*
%AMROUNDEDRECTD15*
21,1,0.03150,0.01575,0,0,0.0*
21,1,0.01575,0.03150,0,0,0.0*
1,1,0.01575,0.00787,-0.00787*
1,1,0.01575,-0.00787,-0.00787*
1,1,0.01575,-0.00787,0.00787*
1,1,0.01575,0.00787,0.00787*
%
%ADD15ROUNDEDRECTD15*%
%ADD16R,0.03150X0.03150*%
%ADD24C,0.01181*%
%ADD25C,0.11811*%
%ADD26C,0.05906*%
%ADD27R,0.05906X0.05906*%
%ADD28C,0.02362*%
D11*
X13386Y50394D02*
X20555D01*
X28141Y42807D01*
X61024Y22835D02*
Y27576D01*
X58465Y20276D02*
X61024Y22835D01*
X54724Y20276D02*
X58465D01*
D13*
X54724Y15157D02*
D03*
Y20276D02*
D03*
X35827Y20169D02*
D03*
Y15051D02*
D03*
X45276Y15051D02*
D03*
Y20169D02*
D03*
D14*
X61024Y32694D02*
D03*
Y27576D02*
D03*
D15*
X35433Y42807D02*
D03*
D16*
X41339D02*
D03*
D24*
X13386Y26772D02*
X13509Y26649D01*
X18110D01*
X35827Y15051D02*
X45276D01*
X35827Y15051D02*
X35827Y15051D01*
X55118D02*
X55118Y15051D01*
X45276Y15051D02*
X55118D01*
X41339Y36902D02*
X45276Y32965D01*
Y20169D02*
Y32965D01*
X41339Y36902D02*
Y42807D01*
X29708Y15051D02*
X35827D01*
X18110Y26649D02*
X29708Y15051D01*
X28141Y42807D02*
X34449Y36500D01*
Y31193D02*
Y36500D01*
X28141Y42807D02*
X35433D01*
X52165Y31193D02*
X53444D01*
X54839Y32588D01*
X61024D01*
X49213Y34922D02*
Y44382D01*
Y34922D02*
X52165Y31969D01*
Y31193D02*
Y31969D01*
X46063Y47532D02*
X49213Y44382D01*
X37402Y47532D02*
X46063D01*
X35433Y45563D02*
X37402Y47532D01*
X35433Y42807D02*
Y45563D01*
X35827Y20169D02*
Y23122D01*
X37008Y24303D01*
X38583D01*
D25*
X59449Y44382D02*
D03*
X14173Y8161D02*
D03*
D26*
X13386Y26772D02*
D03*
Y42520D02*
D03*
Y34646D02*
D03*
X34449Y5602D02*
D03*
X52165D02*
D03*
Y31193D02*
D03*
D27*
X13386Y50394D02*
D03*
X34449Y31193D02*
D03*
D28*
X38583Y24303D02*
D03*
M02*
